<svg xmlns="http://www.w3.org/2000/svg" viewBox="0 0 245.35 213.97"><defs><style>.cls-1{fill:#f0f0f0;}.cls-2{fill:#534b62;}.cls-3{fill:#d6d6d6;}.cls-4{fill:#bdbdbd;}.cls-5{fill:#5ab3b1;}.cls-6{fill:#fff;}.cls-7{fill:#414042;}</style></defs><title>error</title><g id="Layer_2" data-name="Layer 2"><g id="OBJECTS"><path class="cls-1" d="M0,159.21v20.65a3.6,3.6,0,0,0,3.59,3.59H193.26a3.6,3.6,0,0,0,3.59-3.59V159.21Z"/><path class="cls-2" d="M196.85,45.18a3.61,3.61,0,0,0-3.59-3.59H3.59A3.61,3.61,0,0,0,0,45.18v114H196.85Z"/><rect class="cls-3" x="64.99" y="183.45" width="67.71" height="20.79"/><rect class="cls-1" x="48.72" y="204.23" width="99.32" height="9.73"/><rect class="cls-4" x="64.99" y="183.45" width="67.71" height="7.51"/><rect class="cls-5" x="10.18" y="51.83" width="176.53" height="96.86"/><polygon class="cls-2" points="128.69 80.14 120.59 72.03 100.33 92.3 80.06 72.03 71.96 80.14 92.22 100.4 71.96 120.67 80.06 128.77 100.33 108.51 120.59 128.77 128.69 120.67 108.43 100.4 128.69 80.14"/><path class="cls-6" d="M241.35,0h-89a4,4,0,0,0-4,4V61.48a4,4,0,0,0,4,4h10.3L152.51,84.7l34.22-19.22h54.62a4,4,0,0,0,4-4V4A4,4,0,0,0,241.35,0Z"/><path class="cls-7" d="M166.33,40.68a.65.65,0,0,1,.65.65v.88a.65.65,0,0,1-.65.65h-9.82a.65.65,0,0,1-.66-.65V26.51A.68.68,0,0,1,156,26a.66.66,0,0,1,.47-.19h9.62a.6.6,0,0,1,.46.19.61.61,0,0,1,.2.47v.87a.59.59,0,0,1-.2.46.61.61,0,0,1-.46.2h-8v5.13h7.44a.62.62,0,0,1,.46.19.63.63,0,0,1,.2.46v.88a.65.65,0,0,1-.2.46.62.62,0,0,1-.46.19h-7.44v5.33Z"/><path class="cls-7" d="M179.21,25.85a8.16,8.16,0,0,1,2.25.29,5.36,5.36,0,0,1,1.86.9,4.37,4.37,0,0,1,1.28,1.56,5.12,5.12,0,0,1,.47,2.28,4.71,4.71,0,0,1-1,3.14,5.37,5.37,0,0,1-2.51,1.65l3.67,6.39a.6.6,0,0,1,.07.27.51.51,0,0,1-.16.38.51.51,0,0,1-.37.15h-1.05a.94.94,0,0,1-.71-.24,2,2,0,0,1-.33-.41L179.16,36H175v6.2a.62.62,0,0,1-.19.46.64.64,0,0,1-.47.19h-1a.62.62,0,0,1-.46-.19.63.63,0,0,1-.2-.46V26.51a.65.65,0,0,1,.2-.47.62.62,0,0,1,.46-.19Zm-4.23,8h4.11a4.6,4.6,0,0,0,2.71-.69,2.58,2.58,0,0,0,1-2.25,2.45,2.45,0,0,0-1-2.2,4.85,4.85,0,0,0-2.71-.64H175Z"/><path class="cls-7" d="M197.47,25.85a8.14,8.14,0,0,1,2.24.29,5.2,5.2,0,0,1,1.86.9,4.17,4.17,0,0,1,1.28,1.56,5,5,0,0,1,.48,2.28,4.71,4.71,0,0,1-1,3.14,5.48,5.48,0,0,1-2.51,1.65l3.66,6.39a.63.63,0,0,1,.08.27.55.55,0,0,1-.16.38.54.54,0,0,1-.38.15h-1a1,1,0,0,1-.72-.24,2.94,2.94,0,0,1-.33-.41L197.42,36h-4.18v6.2a.63.63,0,0,1-.2.46.62.62,0,0,1-.46.19h-1a.63.63,0,0,1-.46-.19.62.62,0,0,1-.19-.46V26.51a.65.65,0,0,1,.65-.66Zm-4.23,8h4.1a4.56,4.56,0,0,0,2.71-.69,2.56,2.56,0,0,0,1-2.25,2.43,2.43,0,0,0-1-2.2,4.8,4.8,0,0,0-2.71-.64h-4.1Z"/><path class="cls-7" d="M208.55,32.19a7.75,7.75,0,0,1,.47-2.56,6.15,6.15,0,0,1,1.3-2.09,6.26,6.26,0,0,1,2.1-1.41,8,8,0,0,1,5.68,0,6.21,6.21,0,0,1,2.09,1.41,6,6,0,0,1,1.3,2.09,7.75,7.75,0,0,1,.48,2.56c.05,1.45.05,2.89,0,4.33a8.26,8.26,0,0,1-.5,2.56,6.08,6.08,0,0,1-1.3,2.11,6,6,0,0,1-2.08,1.41,8.11,8.11,0,0,1-5.66,0,6,6,0,0,1-2.08-1.41,6.08,6.08,0,0,1-1.3-2.11,8,8,0,0,1-.5-2.56C208.5,35.08,208.5,33.64,208.55,32.19Zm11.11.13a6.47,6.47,0,0,0-.38-2,3.78,3.78,0,0,0-.91-1.41,3.93,3.93,0,0,0-1.37-.84,5.55,5.55,0,0,0-3.48,0,3.84,3.84,0,0,0-1.37.84,3.94,3.94,0,0,0-.93,1.41,6,6,0,0,0-.36,2c0,.72-.05,1.4-.05,2s0,1.31.05,2a5.94,5.94,0,0,0,.36,2,3.94,3.94,0,0,0,.93,1.41,3.84,3.84,0,0,0,1.37.84,5.55,5.55,0,0,0,3.48,0,3.93,3.93,0,0,0,1.37-.84,3.78,3.78,0,0,0,.91-1.41,6.46,6.46,0,0,0,.38-2c0-.73.05-1.41.05-2S219.69,33,219.66,32.32Z"/><path class="cls-7" d="M234.48,25.85a8.16,8.16,0,0,1,2.25.29,5.2,5.2,0,0,1,1.86.9,4.27,4.27,0,0,1,1.28,1.56,5,5,0,0,1,.47,2.28,4.76,4.76,0,0,1-1,3.14,5.45,5.45,0,0,1-2.52,1.65l3.67,6.39a.63.63,0,0,1,.08.27.55.55,0,0,1-.16.38.54.54,0,0,1-.38.15h-1a1,1,0,0,1-.72-.24,2.94,2.94,0,0,1-.33-.41L234.44,36h-4.19v6.2a.65.65,0,0,1-.65.65h-1a.63.63,0,0,1-.46-.19.62.62,0,0,1-.19-.46V26.51a.65.65,0,0,1,.65-.66Zm-4.23,8h4.11a4.58,4.58,0,0,0,2.71-.69,2.56,2.56,0,0,0,1-2.25,2.43,2.43,0,0,0-1-2.2,4.83,4.83,0,0,0-2.71-.64h-4.11Z"/></g></g></svg>