<svg id="Group_117" data-name="Group 117" xmlns="http://www.w3.org/2000/svg" viewBox="0 0 181.911 37.551">
  <defs>
    <style>
      .cls-1 {
        fill: #d8d8d8;
      }

      .cls-2 {
        fill: #e0a434;
      }

      .cls-3 {
        fill: #4d9e8f;
      }

      .cls-4 {
        fill: #fff;
      }
    </style>
  </defs>
  <path id="Path_212" data-name="Path 212" class="cls-1" d="M0,.4,18.527,30.118,72.864.4Z" transform="translate(0 0.097)"/>
  <path id="Path_213" data-name="Path 213" class="cls-2" d="M76.928.4,34.154,34.967,11.4.4Z" transform="translate(2.775 0.097)"/>
  <g id="Group_112" data-name="Group 112" transform="translate(28.225 0.497)">
    <path id="Path_214" data-name="Path 214" class="cls-2" d="M57.3.4" transform="translate(-14.278 -0.4)"/>
    <path id="Path_215" data-name="Path 215" class="cls-3" d="M22.7.4,43.714,34.1,74.177.4Z" transform="translate(-22.7 -0.4)"/>
  </g>
  <g id="Group_113" data-name="Group 113" transform="translate(49.115 0.497)">
    <path id="Path_216" data-name="Path 216" class="cls-4" d="M80.533,33.723H69.715l-4.974-21.76-5.1,21.76H48.826L39.5.4H49.945l4.6,17.283L59.643.4H70.212l5.1,17.283L79.787.4h10.2Z" transform="translate(-39.5 -0.4)"/>
    <path id="Path_217" data-name="Path 217" class="cls-4" d="M95.456,24.025H92.347V33.6H82.4V.4H95.083c13.429,0,14.548,6.839,14.548,11.937S108.885,24.025,95.456,24.025ZM95.332,8.358h-2.86v7.958h2.86c3.357,0,4.1-1.865,4.1-3.979C99.559,10.223,98.564,8.358,95.332,8.358Z" transform="translate(-29.058 -0.4)"/>
  </g>
  <g id="Group_114" data-name="Group 114" transform="translate(130.558)">
    <path id="Path_218" data-name="Path 218" class="cls-4" d="M112.834,18.9l7.833-4.725h-2.611c.373-3.482,1.616-6.093,5.471-6.093,3.357,0,4.849,1.616,5.347,6.466h9.947C138.821,6.714,134.842,0,123.4,0c-11.688,0-14.921,6.839-15.543,14.175H105Z" transform="translate(-105)"/>
  </g>
  <g id="Group_115" data-name="Group 115" transform="translate(133.294 18.651)">
    <path id="Path_219" data-name="Path 219" class="cls-4" d="M131.571,33.9l4.476-7.336-4.476-7.46v3.482h-8.7c-4.6,0-5.471-3.357-5.6-7.585l-5.1,3.109L107.2,15.124c.373,7.834,3.233,15.543,15.667,15.543h8.7V33.9Z" transform="translate(-107.2 -15)"/>
  </g>
  <g id="Group_116" data-name="Group 116" transform="translate(162.639 18.527)">
    <path id="Path_220" data-name="Path 220" class="cls-4" d="M142.364,14.9l-7.709,4.6h1.989a4.114,4.114,0,0,1-4.1,3.109h-1.616l2.362,3.979-2.487,4.1h1.741c9.45-.124,13.553-4.849,14.548-11.066h2.86Z" transform="translate(-130.8 -14.9)"/>
  </g>
  <path id="Path_221" data-name="Path 221" class="cls-4" d="M141.634.2,133.8,4.925h2.86V18.6l4.974-2.984,4.974,2.984V4.925h2.736Z" transform="translate(32.569 0.049)"/>
</svg>
