<svg xmlns="http://www.w3.org/2000/svg" viewBox="0 0 1007.54 129.78"><defs><style>.cls-1{fill:#d7d7d7;}.cls-2{fill:#dfa334;}.cls-3{fill:#4c9d8e;}.cls-4{fill:#fff;}</style></defs><title>Asset 1</title><g id="Layer_2" data-name="Layer 2"><g id="Layer_1-2" data-name="Layer 1"><polygon class="cls-1" points="0 1.78 63.94 104.25 251.44 1.78 0 1.78"/><polygon class="cls-2" points="275.24 1.78 127.5 121.14 48.78 1.78 275.24 1.78"/><polygon class="cls-3" points="97.41 1.78 169.93 118 275.24 1.78 97.41 1.78"/><path class="cls-4" d="M311.28,116.66H274.12l-17.59-75.2-17.41,75.2H201.79L169.3,1.79h36.26l15.79,59.67L238.76,1.79h36.62L293,61.46,308.58,1.79h35.18Z"/><path class="cls-4" d="M398.84,83.46H388.25v33.2H353.79V1.79H397.4c46.31,0,50.08,23.51,50.08,41.11C447.48,60.31,445,83.46,398.84,83.46Zm-.54-54.2H388.25V56.71H398.3c11.49,0,14.36-6.63,14.36-13.81C412.66,35.54,409.61,29.26,398.3,29.26Z"/><path class="cls-4" d="M477.51,65.31l27-16.37h-9.06c1.2-12.16,5.45-21.12,18.76-21.12,11.49,0,16.7,5.56,18.49,22.26h34.46C567.18,23.15,553.72,0,514.23,0c-40.15,0-51.47,23.67-53.6,48.94h-9.92Z"/><path class="cls-4" d="M544.22,129.78l15.56-25.46L544.22,78.65V90.82h-30c-15.83,0-18.69-11.55-19.13-26.13L477.49,75.36,460.33,64.87c1.12,26.93,11.12,53.59,53.9,53.59h30Z"/><path class="cls-4" d="M601,64,574.47,80.05h6.82c-2.62,7.32-6.88,10.31-14.11,10.72-.24,0-2.72,0-5.56,0l8.2,13.54-8.62,14.11h6c32.52-.57,46.66-16.57,50.18-38.39h10Z"/><polygon class="cls-4" points="601.01 1.02 574.07 17.35 583.86 17.35 583.86 64.32 601.03 53.92 618.32 64.48 618.32 17.35 627.73 17.35 601.01 1.02"/><path class="cls-4" d="M749.65,116.67,717.29,59.25v57.42h-32.2V10.45H721.6L753,69.2V10.45h32.19V116.67Z"/><path class="cls-4" d="M845.9,116.67h-41V10.45h42.65c34.19,0,50.28,20.42,50.28,52.45C897.84,94.76,880.58,116.67,845.9,116.67Zm-3.32-80.83h-5.81V91.27h5.15c15.43,0,24.56-4,24.56-28.54C866.48,38.67,858.18,35.84,842.58,35.84Z"/><path class="cls-4" d="M974,116.67l-5.14-17.43H935.68L930,116.67H896.68L934.19,10.45h37.17l36.18,106.22Zm-21.74-80L941.49,75.84h21.57Z"/></g></g></svg>